# xmcd
#
# Track frame offsets: 
#        150
#        14155
#        33965
#        43485
#        60452
#        80742
#        92129
#        125791
#        137058
#        150988
#        166283
#        178165
#        187640
#        202792
#        217862
#
# Disc length: 9558 seconds
#
# Revision: 0
# Processed by: cddbd v1.5.2PL0 Copyright (c) Steve Scherf et al.
# Submitted via: ExactAudioCopy v1.0b1
#
DISCID=c925540f
DTITLE=Bob Margolin - In North Carolina
DYEAR=2007
DGENRE=Blues
TTITLE0=Tell Me Why
TTITLE1=In North Carolina
TTITLE2=You Rascal You
TTITLE3=Just Before Dawn
TTITLE4=Colleen
TTITLE5=Lonely Man Blues
TTITLE6=Tears of Rage
TTITLE7=Natural Blues
TTITLE8=Bring Me Your Blues
TTITLE9=Red Hot Kisses
TTITLE10=Hard Feelings
TTITLE11=Floyd's Guitar Blues
TTITLE12=She and the Devil
TTITLE13=Baby, Baby, Baby
TTITLE14=You Never Know [Spoken Word Blues Fiction]
EXTD=
EXTT0=
EXTT1=
EXTT2=
EXTT3=
EXTT4=
EXTT5=
EXTT6=
EXTT7=
EXTT8=
EXTT9=
EXTT10=
EXTT11=
EXTT12=
EXTT13=
EXTT14=
PLAYORDER=
